# xmcd CD database file
#
# Track frame offsets:
#	151
#	32306
#	65629
#	87002
#	113371
#	130258
#	145495
#	188466
#	217929
#	240562
#	267059
#	283026
#
# Disc length: 3787 seconds
#
# Revision: 0
# Processed by: cddbd v1.4PL0 Copyright (c) Steve Scherf et al.
# Submitted via: CDex 1.50Beta5
#
DISCID=9c0ec90c
DTITLE=Raviraj Nasery - Prem Swarup Lara (II)
DYEAR=2000
DGENRE=New Age
TTITLE0=Mere Paas Me Aaker Darshana Do
TTITLE1=Mere Sai Naam Ki Naav Chali
TTITLE2=Kalyana Rama Ananda Rama
TTITLE3=Rama Rahim Ko Bhajanewale
TTITLE4=Dhimi Dhimi Natana Shivaya
TTITLE5=Aum Shivaya Namah Aum
TTITLE6=Sare Duniya Ke Phool (Gazal)
TTITLE7=Baba... O Sai Baba
TTITLE8=Eak Bar Kahore Sai Ram
TTITLE9=Aavajo Re Aavajo (Guji)
TTITLE10=Aarti Jai Jagadisha Hare
TTITLE11=THE END
EXTD=YEAR: 2000
EXTT0=
EXTT1=
EXTT2=
EXTT3=
EXTT4=
EXTT5=
EXTT6=
EXTT7=
EXTT8=
EXTT9=
EXTT10=
EXTT11=
PLAYORDER=
